<?xml version="1.0" encoding="UTF-8"?>
<svg version="1.1" xmlns="http://www.w3.org/2000/svg" width="200" height="200">
<path d="M0 0 C66 0 132 0 200 0 C200 66 200 132 200 200 C134 200 68 200 0 200 C0 134 0 68 0 0 Z " fill="#F6F6F6" transform="translate(0,0)"/>
<path d="M0 0 C66 0 132 0 200 0 C200 16.5 200 33 200 50 C198.02 50 196.04 50 194 50 C191.66460155 50.81031609 191.66460155 50.81031609 189.625 52 C188.93664062 52.37125 188.24828125 52.7425 187.5390625 53.125 C187.03117188 53.41375 186.52328125 53.7025 186 54 C186 52.35 186 50.7 186 49 C185.11985229 49.45270264 185.11985229 49.45270264 184.22192383 49.91455078 C166.87109725 58.75082262 149.84884073 64.9818465 130.6171875 68.1640625 C127.4489697 69.17600072 126.63737999 70.1526065 125 73 C124.38992554 74.30028581 123.8059559 75.61317109 123.25 76.9375 C121.05007064 81.49936901 118.3237262 83.43779188 114 86 C113.34 86 112.68 86 112 86 C111.505 87.485 111.505 87.485 111 89 C110.67 89 110.34 89 110 89 C109.67 85.37 109.34 81.74 109 78 C109.99 77.67 110.98 77.34 112 77 C111.67 76.34 111.34 75.68 111 75 C106.0702801 73.59577396 106.0702801 73.59577396 97 74 C94.36 80.93 91.72 87.86 89 95 C81.52482444 92.86423556 77.84184944 90.75530104 73.25 84.6875 C71.48834914 80.89995065 70.22540611 76.98908796 69 73 C69.99 73 70.98 73 72 73 C72.14695312 73.56847656 72.29390625 74.13695313 72.4453125 74.72265625 C74.636258 82.26504909 77.99530717 87.45451994 84.875 91.4375 C85.90625 91.953125 86.9375 92.46875 88 93 C88 90.36 88 87.72 88 85 C87.2575 84.9175 86.515 84.835 85.75 84.75 C82.29422495 83.80751589 81.1836923 82.83879999 79 80 C78.2319911 77.98448459 77.5748202 75.98238687 77.00390625 73.90234375 C75.56693445 71.17936607 73.69812681 70.42813986 71 69 C68.44706601 68.19263537 68.44706601 68.19263537 65.74609375 67.67578125 C64.73619385 67.45591553 63.72629395 67.2360498 62.68579102 67.00952148 C61.61385498 66.77950439 60.54191895 66.5494873 59.4375 66.3125 C44.17649482 62.8494898 29.74987488 57.5262473 16 50 C16 51.65 16 53.3 16 55 C14.86111328 54.47599609 14.86111328 54.47599609 13.69921875 53.94140625 C12.70535156 53.48636719 11.71148437 53.03132813 10.6875 52.5625 C9.70136719 52.11003906 8.71523437 51.65757813 7.69921875 51.19140625 C4.98434301 49.94268008 4.98434301 49.94268008 2 49 C1.67 49.99 1.34 50.98 1 52 C0.67 52 0.34 52 0 52 C0 34.84 0 17.68 0 0 Z " fill="#F7F6F6" transform="translate(0,0)"/>
<path d="M0 0 C4.51868641 1.37845736 8.73257719 3.1867791 13.02954102 5.12255859 C25.01436189 10.48804192 36.92490548 13.98437374 49.7109375 16.82421875 C50.77570313 17.06785156 51.84046875 17.31148437 52.9375 17.5625 C53.83339844 17.74941406 54.72929688 17.93632813 55.65234375 18.12890625 C58.59719822 19.22158936 60.01500773 20.58310831 62 23 C62.90625 25.03515625 62.90625 25.03515625 63.5 27.0625 C64.6747909 30.49748644 65.68400633 32.23837836 69 34 C70.485 34.495 70.485 34.495 72 35 C73.09658936 38.28976808 72.79953138 39.71303767 72 43 C65.18485416 40.66337857 60.37319188 36.32637543 57 30 C56.35928781 27.59616012 56.15314152 25.50131145 56 23 C55.34 23.33 54.68 23.66 54 24 C56.75320799 31.78281142 59.64186871 38.54052649 67 43 C68.98014432 43.72351427 70.97821315 44.40265389 73 45 C73.17015625 44.40574219 73.3403125 43.81148437 73.515625 43.19921875 C78.76923077 25.23076923 78.76923077 25.23076923 81 23 C86.11387658 22.5927839 91.4962987 22.23966695 96 25 C96.495 26.485 96.495 26.485 97 28 C95.68 28 94.36 28 93 28 C93.99 33.28 94.98 38.56 96 44 C103.18533822 43.2087795 103.18533822 43.2087795 108 39 C110.35795456 35.34346177 112.52901464 31.66195344 113.71948242 27.46118164 C115 25 115 25 117.48681641 23.92919922 C118.51468262 23.72311035 119.54254883 23.51702148 120.6015625 23.3046875 C121.73207031 23.06363281 122.86257812 22.82257813 124.02734375 22.57421875 C125.21457031 22.34347656 126.40179688 22.11273438 127.625 21.875 C135.00911729 20.36219635 142.02464484 18.88557037 149 16 C150.14339844 15.56300781 151.28679687 15.12601563 152.46484375 14.67578125 C162.18220492 10.86097917 171.59856391 6.53386269 181 2 C178.00403167 16.83369684 178.00403167 16.83369684 173 21 C162.93550806 26.73990556 151.30662423 28.38476797 140 30 C150.56 30 161.12 30 172 30 C166.25810185 41.4837963 166.25810185 41.4837963 161.453125 43.41210938 C156.19843221 44.67139483 150.87924695 44.68497614 145.5 44.75 C143.69402344 44.79447266 143.69402344 44.79447266 141.8515625 44.83984375 C138.90097607 44.91009581 135.95115944 44.96301486 133 45 C138.53934574 47.2194685 143.98932611 47.63851476 149.875 48.125 C150.84953125 48.21136719 151.8240625 48.29773438 152.828125 48.38671875 C155.21826446 48.59761341 157.60877625 48.80184637 160 49 C158.36585176 52.55538277 156.88453085 54.06554598 153.5625 56.1875 C152.78003906 56.69667969 151.99757812 57.20585938 151.19140625 57.73046875 C146.05855969 60.70404296 140.77023714 60.6892024 135 60 C131.15313679 58.64339966 127.58398074 56.94103406 124 55 C123.67 55.33 123.34 55.66 123 56 C124.7472544 57.29537826 126.49791517 58.58616273 128.25 59.875 C129.22453125 60.59429687 130.1990625 61.31359375 131.203125 62.0546875 C133.43902154 63.60982225 135.52872493 64.88204223 138 66 C138 66.66 138 67.32 138 68 C130.76419014 69.9295493 121.74796358 72.29404974 114.6796875 68.87890625 C112.75 67.5 112.75 67.5 110 65 C112.97 68.63 115.94 72.26 119 76 C114.68400879 77.0789978 111.24179998 77.49498683 107 76 C105.1193713 73.23782659 104 71.37036422 104 68 C103.34 68 102.68 68 102 68 C102.99 72.455 102.99 72.455 104 77 C102.02 77.99 102.02 77.99 100 79 C100.495 79.33 100.99 79.66 101.5 80 C103.88179561 83.17572747 103.19168226 86.10246066 103 90 C102.67 89.34 102.34 88.68 102 88 C100.68 88 99.36 88 98 88 C97.34 87.01 96.68 86.02 96 85 C96.46964592 91.57504287 97.76039074 97.81464257 102.6328125 102.60546875 C104 104 104 104 104 106 C101.69 105.67 99.38 105.34 97 105 C97 108.63 97 112.26 97 116 C91.90340522 113.45170261 91.89128086 112.10645833 90 107 C89.34 107 88.68 107 88 107 C87.81824219 108.26457031 87.81824219 108.26457031 87.6328125 109.5546875 C87.46523437 110.65039062 87.29765625 111.74609375 87.125 112.875 C86.96257812 113.96554688 86.80015625 115.05609375 86.6328125 116.1796875 C86 119 86 119 84 121 C82.23384882 116.29026351 81.51405169 111.96916636 81 107 C80.34 107 79.68 107 79 107 C78.74605469 107.56589844 78.49210937 108.13179688 78.23046875 108.71484375 C77.71419922 109.81505859 77.71419922 109.81505859 77.1875 110.9375 C76.85105469 111.66839844 76.51460938 112.39929688 76.16796875 113.15234375 C75 115 75 115 72 116 C72 112.37 72 108.74 72 105 C68.535 105.99 68.535 105.99 65 107 C66.85911344 102.11421397 69.24500516 97.56703168 71.66015625 92.9375 C72.89244491 90.23580592 73.56481896 87.92269736 74 85 C73.34 85 72.68 85 72 85 C72 86.32 72 87.64 72 89 C70.35 88.67 68.7 88.34 67 88 C65.93648325 84.61608307 65.78557018 83.4195366 67.4375 80.1875 C68.2109375 79.1046875 68.2109375 79.1046875 69 78 C67.68 78 66.36 78 65 78 C65.66 75.03 66.32 72.06 67 69 C66.34 69 65.68 69 65 69 C64.5359375 70.4540625 64.5359375 70.4540625 64.0625 71.9375 C63 75 63 75 62 76 C60.15108054 76.23363881 58.29511969 76.41303635 56.4375 76.5625 C55.42558594 76.64628906 54.41367188 76.73007813 53.37109375 76.81640625 C52.58863281 76.87699219 51.80617188 76.93757813 51 77 C52.45555735 74.50475883 53.8890267 72.13974416 55.6875 69.875 C57.28673117 67.9718389 57.28673117 67.9718389 57 65 C56.65710938 65.44472656 56.31421875 65.88945313 55.9609375 66.34765625 C52.98943745 69.56068216 51.0536958 70.92387289 46.59375 71.24609375 C41.01941843 70.87720416 36.12262395 70.31967877 31 68 C31 67.34 31 66.68 31 66 C31.71800781 65.75121094 32.43601563 65.50242187 33.17578125 65.24609375 C36.28552772 63.87402027 38.55284848 62.20290525 41.1875 60.0625 C42.04730469 59.37285156 42.90710937 58.68320313 43.79296875 57.97265625 C46.17437767 56.01003395 46.17437767 56.01003395 48 53 C47.05640625 53.61488281 47.05640625 53.61488281 46.09375 54.2421875 C40.71757302 57.62658807 36.28929452 60.00169928 30 61 C29.30390625 61.11730469 28.6078125 61.23460937 27.890625 61.35546875 C21.55726244 61.95062516 17.50387389 59.38857682 12.28515625 56.01953125 C10 54 10 54 8 49 C13.94 48.01 19.88 47.02 26 46 C24.69804688 45.98582031 23.39609375 45.97164062 22.0546875 45.95703125 C20.32809034 45.91011285 18.60152893 45.86186556 16.875 45.8125 C15.59109375 45.80379883 15.59109375 45.80379883 14.28125 45.79492188 C8.12277937 45.58174405 5.25906119 44.50606003 1 40 C-1.0557071 36.47593069 -2.54437649 32.80701533 -4 29 C-2.75347656 29.16371094 -1.50695312 29.32742187 -0.22265625 29.49609375 C5.3795572 30.11856191 10.93205157 30.11094198 16.5625 30.0625 C17.57119141 30.05798828 18.57988281 30.05347656 19.61914062 30.04882812 C22.07949147 30.03716769 24.53971239 30.02080378 27 30 C26.16976318 29.89510254 26.16976318 29.89510254 25.32275391 29.78808594 C0.02865549 26.51380306 0.02865549 26.51380306 -6.375 19.9375 C-9.70469777 15.55482088 -11.81078301 10.3555772 -13 5 C-12.67 3.68 -12.34 2.36 -12 1 C-5.565 3.97 -5.565 3.97 1 7 C0.67 6.67 0.34 6.34 0 6 C-0.04080783 4.00041636 -0.04254356 1.99954746 0 0 Z " fill="#242021" transform="translate(16,50)"/>
<path d="M0 0 C0.495 1.98 0.495 1.98 1 4 C2.051875 3.34 3.10375 2.68 4.1875 2 C7.26623937 0.2228415 9.38596328 -0.43806506 13 0 C14.9285258 5.41022675 12.48536254 10.69817965 11 16 C10.71125 17.155 10.4225 18.31 10.125 19.5 C8.70245476 22.66121164 6.82832301 24.06483163 4 26 C4.66 26.33 5.32 26.66 6 27 C5.71954306 33.59073818 3.14597589 37.92715931 -1 43 C-1.9075 43.66 -2.815 44.32 -3.75 45 C-6.39369166 47.34994814 -6.27516594 47.951695 -6.6875 51.3125 C-7.23367782 54.55743881 -7.74949475 55.76034696 -10.1640625 58.0703125 C-16.20283126 62.32773354 -21.64908961 64.97429157 -29 66 C-29 66.33 -29 66.66 -29 67 C-36.47523432 67 -41.47478228 62.70972124 -47 58 C-47.66 57.01 -48.32 56.02 -49 55 C-45.55350929 55.44470848 -42.93423228 56.50816834 -39.875 58.0625 C-33.65793622 60.86688035 -27.70750977 61.2705511 -21.21875 59.046875 C-16.2303896 56.72875458 -13.29749818 54.4692743 -10 50 C-10.88300781 50.02320313 -11.76601562 50.04640625 -12.67578125 50.0703125 C-32.4903237 50.36827554 -32.4903237 50.36827554 -36.63793945 46.4543457 C-37.08741943 45.97441162 -37.53689941 45.49447754 -38 45 C-37.21874756 44.98541748 -36.43749512 44.97083496 -35.63256836 44.95581055 C-32.06706632 44.88099502 -28.50246623 44.78444367 -24.9375 44.6875 C-23.70837891 44.66494141 -22.47925781 44.64238281 -21.21289062 44.61914062 C-12.10199251 44.53642405 -12.10199251 44.53642405 -4 41 C-2.35 38.03 -0.7 35.06 1 32 C-9.56 32 -20.12 32 -31 32 C-30.67 31.34 -30.34 30.68 -30 30 C-27.24359518 29.47941263 -24.52682682 29.05998408 -21.75 28.6875 C-12.44387908 27.28053506 -3.93689198 25.22409272 4.0625 20 C7.22377367 15.10512463 8.53208603 9.60103486 10 4 C9.48727539 4.24645264 8.97455078 4.49290527 8.44628906 4.74682617 C-11.17319744 14.15899586 -11.17319744 14.15899586 -21 18 C-22.20914063 18.48339844 -23.41828125 18.96679688 -24.6640625 19.46484375 C-29.57021609 21.29388463 -34.59529596 22.49632012 -39.6875 23.6875 C-40.61111328 23.91244141 -41.53472656 24.13738281 -42.48632812 24.36914062 C-43.82920898 24.6872168 -43.82920898 24.6872168 -45.19921875 25.01171875 C-46.00190186 25.20209717 -46.80458496 25.39247559 -47.6315918 25.58862305 C-50.13201252 26.02292971 -52.46719173 26.07111314 -55 26 C-55.12246094 26.73347656 -55.24492187 27.46695313 -55.37109375 28.22265625 C-57.02497921 35.526461 -61.01865464 40.6005717 -66.9375 45.00390625 C-69.43119198 46.20824613 -71.26429395 46.1852301 -74 46 C-74.66 44.02 -75.32 42.04 -76 40 C-71.54523564 35.29067767 -71.54523564 35.29067767 -68.5234375 33.6796875 C-65.44156099 31.62828363 -64.44840359 29.73123619 -62.8125 26.4375 C-60.15240642 21.15240642 -60.15240642 21.15240642 -58 19 C-55.64013672 18.31738281 -55.64013672 18.31738281 -52.6796875 17.703125 C-51.59461914 17.46988525 -50.50955078 17.23664551 -49.39160156 16.99633789 C-48.23112305 16.75004639 -47.07064453 16.50375488 -45.875 16.25 C-31.14678172 12.977844 -18.05275243 8.34894262 -4.6953125 1.3203125 C-2 0 -2 0 0 0 Z " fill="#E0DFE0" transform="translate(186,49)"/>
<path d="M0 0 C4.51868641 1.37845736 8.73257719 3.1867791 13.02954102 5.12255859 C25.01436189 10.48804192 36.92490548 13.98437374 49.7109375 16.82421875 C50.77570313 17.06785156 51.84046875 17.31148437 52.9375 17.5625 C53.83339844 17.74941406 54.72929688 17.93632813 55.65234375 18.12890625 C58.59719822 19.22158936 60.01500773 20.58310831 62 23 C62.90625 25.03515625 62.90625 25.03515625 63.5 27.0625 C64.6747909 30.49748644 65.68400633 32.23837836 69 34 C70.485 34.495 70.485 34.495 72 35 C73.09658936 38.28976808 72.79953138 39.71303767 72 43 C65.18485416 40.66337857 60.37319188 36.32637543 57 30 C56.35928781 27.59616012 56.15314152 25.50131145 56 23 C55.16033691 23.27287842 55.16033691 23.27287842 54.30371094 23.55126953 C51.60646931 24.07665424 49.82053482 23.76261154 47.140625 23.1796875 C46.19735352 22.97666016 45.25408203 22.77363281 44.28222656 22.56445312 C43.2815918 22.33693359 42.28095703 22.10941406 41.25 21.875 C40.22100586 21.64490234 39.19201172 21.41480469 38.13183594 21.17773438 C5.0745067 13.61176005 5.0745067 13.61176005 0 6 C-0.125 2.8125 -0.125 2.8125 0 0 Z " fill="#D35D30" transform="translate(16,50)"/>
<path d="M0 0 C-0.17054894 3.75207658 -0.43417526 5.48132732 -3.25 8.0625 C-11.09100889 12.53551241 -19.7524284 15.12321105 -28.53125 16.95703125 C-29.26293396 17.11162308 -29.99461792 17.2662149 -30.74847412 17.42549133 C-33.76537228 18.05573094 -36.78304656 18.67576068 -39.81054688 19.25317383 C-48.60029424 20.63857514 -48.60029424 20.63857514 -56.0769043 24.93457031 C-57.33564571 26.93554064 -58.19786329 28.78412924 -59 31 C-62.08849336 36.32498855 -65.77202246 39.80889683 -71 43 C-71.66 43 -72.32 43 -73 43 C-73.33 41.02 -73.66 39.04 -74 37 C-73.23816406 36.65001953 -73.23816406 36.65001953 -72.4609375 36.29296875 C-66.51904451 33.14398801 -64.12888521 29.41688874 -61.2265625 23.42578125 C-60 21 -60 21 -58 19 C-55.64013672 18.31738281 -55.64013672 18.31738281 -52.6796875 17.703125 C-51.59461914 17.46988525 -50.50955078 17.23664551 -49.39160156 16.99633789 C-48.23112305 16.75004639 -47.07064453 16.50375488 -45.875 16.25 C-31.14678172 12.977844 -18.05275243 8.34894262 -4.6953125 1.3203125 C-2 0 -2 0 0 0 Z " fill="#D35626" transform="translate(186,49)"/>
<path d="M0 0 C1.3805087 3.76668598 0.59568159 6.44789173 -0.4375 10.25 C-0.86869141 11.86648437 -0.86869141 11.86648437 -1.30859375 13.515625 C-1.53675781 14.33546875 -1.76492187 15.1553125 -2 16 C-2.99 15.34 -3.98 14.68 -5 14 C-4.34 10.7 -3.68 7.4 -3 4 C-4.23234375 4.59167969 -5.4646875 5.18335938 -6.734375 5.79296875 C-15.72938243 10.09433525 -24.70809342 14.36807075 -34 18 C-35.20914063 18.48339844 -36.41828125 18.96679688 -37.6640625 19.46484375 C-42.57021609 21.29388463 -47.59529596 22.49632012 -52.6875 23.6875 C-53.61111328 23.91244141 -54.53472656 24.13738281 -55.48632812 24.36914062 C-56.82920898 24.6872168 -56.82920898 24.6872168 -58.19921875 25.01171875 C-59.00190186 25.20209717 -59.80458496 25.39247559 -60.6315918 25.58862305 C-63.13201252 26.02292971 -65.46719173 26.07111314 -68 26 C-68.12246094 26.73347656 -68.24492187 27.46695313 -68.37109375 28.22265625 C-70.02497921 35.526461 -74.01865464 40.6005717 -79.9375 45.00390625 C-82.43119198 46.20824613 -84.26429395 46.1852301 -87 46 C-87.66 44.02 -88.32 42.04 -89 40 C-87.515 39.505 -87.515 39.505 -86 39 C-86 40.32 -86 41.64 -86 43 C-79.41876957 39.21471714 -75.54586699 35.69182417 -72 29 C-69.08060769 23.91460694 -67.57802124 22.58925944 -62 21 C-59.64126754 20.39844862 -57.27602694 19.82207817 -54.90625 19.265625 C-53.5311073 18.93548967 -52.15611205 18.60473967 -50.78125 18.2734375 C-48.65495887 17.76324424 -46.52813212 17.25654935 -44.3984375 16.76074219 C-27.21663115 13.2316805 -27.21663115 13.2316805 -13 4 C-8.83857385 1.39693218 -5.02531165 -0.62816396 0 0 Z " fill="#EBC9BB" transform="translate(199,49)"/>
<path d="M0 0 C0.33 0.66 0.66 1.32 1 2 C1.66 2.33 2.32 2.66 3 3 C3.268125 3.680625 3.53625 4.36125 3.8125 5.0625 C5.89453022 10.21278528 8.33305925 14.88870617 13 18 C15.41713479 18.3663859 15.41713479 18.3663859 18.10546875 18.4140625 C19.08837891 18.45273438 20.07128906 18.49140625 21.08398438 18.53125 C22.62022461 18.57765625 22.62022461 18.57765625 24.1875 18.625 C25.22326172 18.66367188 26.25902344 18.70234375 27.32617188 18.7421875 C29.88393622 18.83648296 32.44169287 18.92208202 35 19 C28.99983999 23.00010667 21.08170088 23.31474226 14 23 C17.0561775 28.78701998 21.08028375 31.41120281 27 34 C33.89876228 35.44990936 41.85638182 33.3836484 47.89453125 29.91015625 C49.27925526 28.96342281 50.64193675 27.98459586 52 27 C52.66 27 53.32 27 54 27 C52.44547476 30.98690002 49.89336542 33.06871362 46.625 35.75 C45.66851562 36.54921875 44.71203125 37.3484375 43.7265625 38.171875 C41 40 41 40 37 40 C37 40.66 37 41.32 37 42 C43.27 42.99 49.54 43.98 56 45 C56 45.33 56 45.66 56 46 C47.89834459 48.6009653 42.65042353 47.51977661 35 44 C35 42.35 35 40.7 35 39 C34.38253906 38.92523438 33.76507813 38.85046875 33.12890625 38.7734375 C24.79706172 37.47990913 18.60397503 34.09322635 12.875 27.875 C11 25 11 25 11.3828125 22.8203125 C11.58648437 22.21960938 11.79015625 21.61890625 12 21 C11.46890625 20.57589844 10.9378125 20.15179688 10.390625 19.71484375 C5.72691117 15.8425996 2.40282949 12.60660214 0 7 C-0.25 3.0625 -0.25 3.0625 0 0 Z " fill="#D7D6D6" transform="translate(10,76)"/>
<path d="M0 0 C2.91517292 1.07401108 4.77810176 1.77810176 7 4 C9.9093558 4.14517744 12.719946 4.18630796 15.625 4.125 C16.42679688 4.11597656 17.22859375 4.10695313 18.0546875 4.09765625 C20.03658523 4.07406223 22.01832981 4.03819065 24 4 C24.495 5.485 24.495 5.485 25 7 C23.39743892 7.50512244 21.79288208 8.00391627 20.1875 8.5 C19.29417969 8.7784375 18.40085938 9.056875 17.48046875 9.34375 C15 10 15 10 12 10 C11.896875 10.639375 11.79375 11.27875 11.6875 11.9375 C11.460625 12.618125 11.23375 13.29875 11 14 C7.85069107 15.04976964 5.61185544 15.10131595 2.3125 15.0625 C1.31863281 15.05347656 0.32476562 15.04445312 -0.69921875 15.03515625 C-1.83810547 15.01775391 -1.83810547 15.01775391 -3 15 C-3 17.31 -3 19.62 -3 22 C-1.35 22 0.3 22 2 22 C2.33 22.99 2.66 23.98 3 25 C3.66 25 4.32 25 5 25 C5 26.65 5 28.3 5 30 C4.67 29.01 4.34 28.02 4 27 C2.35 26.67 0.7 26.34 -1 26 C-1.33 26.99 -1.66 27.98 -2 29 C-4.375 29.125 -4.375 29.125 -7 29 C-7.66 28.34 -8.32 27.68 -9 27 C-11.60280568 27.32041397 -11.60280568 27.32041397 -14 28 C-14.33 25.03 -14.66 22.06 -15 19 C-11.535 20.98 -11.535 20.98 -8 23 C-7.69504515 18.57335436 -7.69504515 18.57335436 -9.5 14.625 C-9.995 14.08875 -10.49 13.5525 -11 13 C-9.35 12.67 -7.7 12.34 -6 12 C-6.33 11.443125 -6.66 10.88625 -7 10.3125 C-8.1309601 7.69715478 -8.15662974 5.8193354 -8 3 C-7.34 3 -6.68 3 -6 3 C-3 8.75 -3 8.75 -3 11 C0.63 11 4.26 11 8 11 C7.4225 10.37351562 6.845 9.74703125 6.25 9.1015625 C5.5075 8.28429687 4.765 7.46703125 4 6.625 C3.2575 5.81289062 2.515 5.00078125 1.75 4.1640625 C0 2 0 2 0 0 Z " fill="#E1E0E0" transform="translate(126,115)"/>
<path d="M0 0 C1.44375 0.144375 2.8875 0.28875 4.375 0.4375 C5.18710938 0.51871094 5.99921875 0.59992188 6.8359375 0.68359375 C9 1 9 1 11 2 C11 2.66 11 3.32 11 4 C8.35261084 5.4606285 7.10551666 6 4 6 C3.67 8.64 3.34 11.28 3 14 C-2.75 14.125 -2.75 14.125 -5 13 C-5.99 15.64 -6.98 18.28 -8 21 C-10.6875 21.5 -10.6875 21.5 -14 21 C-16.08132026 18.54759163 -17.55490096 15.8646211 -19 13 C-19.99 13.495 -19.99 13.495 -21 14 C-21 13.34 -21 12.68 -21 12 C-21.66 11.67 -22.32 11.34 -23 11 C-22.34 11 -21.68 11 -21 11 C-20.896875 10.443125 -20.79375 9.88625 -20.6875 9.3125 C-19.86866423 6.55823422 -18.54146219 4.41272343 -17 2 C-16.01 2.33 -15.02 2.66 -14 3 C-13.34 7.29 -12.68 11.58 -12 16 C-10.26315467 12.52630934 -9.69915888 10.92380063 -9.375 7.25 C-9.30023438 6.45078125 -9.22546875 5.6515625 -9.1484375 4.828125 C-9.09945312 4.22484375 -9.05046875 3.6215625 -9 3 C-7.68 3 -6.36 3 -5 3 C-4.319375 4.7015625 -4.319375 4.7015625 -3.625 6.4375 C-2.42904194 10.04721692 -2.42904194 10.04721692 0 11 C0 7.37 0 3.74 0 0 Z " fill="#D4D3D4" transform="translate(112,154)"/>
<path d="M0 0 C1.06347656 -0.01417969 2.12695312 -0.02835937 3.22265625 -0.04296875 C5.9375 0.1875 5.9375 0.1875 7.9375 2.1875 C6.9475 2.5175 5.9575 2.8475 4.9375 3.1875 C5.5975 3.8475 6.2575 4.5075 6.9375 5.1875 C2.3175 5.1875 -2.3025 5.1875 -7.0625 5.1875 C-9.7025 12.1175 -12.3425 19.0475 -15.0625 26.1875 C-22.53767556 24.05173556 -26.22065056 21.94280104 -30.8125 15.875 C-32.57415086 12.08745065 -33.83709389 8.17658796 -35.0625 4.1875 C-34.0725 4.1875 -33.0825 4.1875 -32.0625 4.1875 C-31.91554688 4.75597656 -31.76859375 5.32445313 -31.6171875 5.91015625 C-29.426242 13.45254909 -26.06719283 18.64201994 -19.1875 22.625 C-18.15625 23.140625 -17.125 23.65625 -16.0625 24.1875 C-16.145 23.115 -16.2275 22.0425 -16.3125 20.9375 C-16.32356081 14.75450686 -14.54792923 7.262465 -10.61328125 2.39453125 C-7.33817025 -0.15461056 -3.979867 0.02417902 0 0 Z " fill="#E5E3E3" transform="translate(104.0625,68.8125)"/>
<path d="M0 0 C0.66 0 1.32 0 2 0 C1.125 6.75 1.125 6.75 0 9 C1.32 9 2.64 9 4 9 C3.608125 10.0725 3.21625 11.145 2.8125 12.25 C1.58703117 15.89885991 1.58703117 15.89885991 3.375 18.4375 C3.91125 18.953125 4.4475 19.46875 5 20 C3.68 20.33 2.36 20.66 1 21 C1 21.99 1 22.98 1 24 C-0.32 24 -1.64 24 -3 24 C-3 23.34 -3 22.68 -3 22 C-6.12197478 23.3089572 -6.12197478 23.3089572 -8 26 C-8.99 26 -9.98 26 -11 26 C-10.6875 22.625 -10.6875 22.625 -10 19 C-7 17 -7 17 -3 17 C-2.74969023 14.58380177 -2.74969023 14.58380177 -3 12 C-3.99 11.34 -4.98 10.68 -6 10 C-5.67 9.34 -5.34 8.68 -5 8 C-6.65 8 -8.3 8 -10 8 C-10 7.67 -10 7.34 -10 7 C-8.906875 6.95875 -7.81375 6.9175 -6.6875 6.875 C-2.75003667 6.39434602 -2.75003667 6.39434602 -1.0625 2.9375 C-0.711875 1.968125 -0.36125 0.99875 0 0 Z " fill="#CCCCCC" transform="translate(81,119)"/>
<path d="M0 0 C5.26301411 1.64097209 10.26785466 3.73274321 15.3125 5.9375 C16.54709961 6.45860352 16.54709961 6.45860352 17.80664062 6.99023438 C18.58845703 7.33248047 19.37027344 7.67472656 20.17578125 8.02734375 C21.24179565 8.48741821 21.24179565 8.48741821 22.3293457 8.95678711 C24 10 24 10 25 13 C25.99 13.33 26.98 13.66 28 14 C28 14.33 28 14.66 28 15 C21.96021704 15.44739133 17.9921049 14.44097206 12.46875 12.01171875 C10.13958314 11.05720259 7.95653774 10.45817919 5.5 9.9375 C2 9 2 9 0 6 C-0.125 2.8125 -0.125 2.8125 0 0 Z " fill="#E4450A" transform="translate(16,50)"/>
<path d="M0 0 C2.31 0.33 4.62 0.66 7 1 C6.401875 1.2475 5.80375 1.495 5.1875 1.75 C2.08640982 3.52205153 0.62020952 5.60452859 -0.828125 8.86328125 C-3.28782556 14.39760752 -5.76429466 16.8973598 -11 20 C-11.66 20 -12.32 20 -13 20 C-13.33 20.99 -13.66 21.98 -14 23 C-14.33 23 -14.66 23 -15 23 C-15.33 19.37 -15.66 15.74 -16 12 C-15.01 11.67 -14.02 11.34 -13 11 C-13.26676204 9.01508358 -13.26676204 9.01508358 -14 7 C-14.99 6.67 -15.98 6.34 -17 6 C-16 5 -16 5 -13.4375 4.9375 C-12.2309375 4.9684375 -12.2309375 4.9684375 -11 5 C-9.5393715 7.64738916 -9 8.89448334 -9 12 C-7.35 12 -5.7 12 -4 12 C-4.33 11.01 -4.66 10.02 -5 9 C-4.34 9 -3.68 9 -3 9 C-2.87625 8.443125 -2.7525 7.88625 -2.625 7.3125 C-1.94023145 4.77885636 -1.00866237 2.42078968 0 0 Z " fill="#E8E6E6" transform="translate(125,66)"/>
<path d="M0 0 C0.33 0.66 0.66 1.32 1 2 C1.66 2.33 2.32 2.66 3 3 C3.268125 3.680625 3.53625 4.36125 3.8125 5.0625 C5.89453022 10.21278528 8.33305925 14.88870617 13 18 C15.41713479 18.3663859 15.41713479 18.3663859 18.10546875 18.4140625 C19.08837891 18.45273438 20.07128906 18.49140625 21.08398438 18.53125 C22.62022461 18.57765625 22.62022461 18.57765625 24.1875 18.625 C25.22326172 18.66367188 26.25902344 18.70234375 27.32617188 18.7421875 C29.88393622 18.83648296 32.44169287 18.92208202 35 19 C32.09441364 20.93705757 30.93256893 21.34681425 27.62109375 21.81640625 C26.78255859 21.94080078 25.94402344 22.06519531 25.08007812 22.19335938 C24.20802734 22.31517578 23.33597656 22.43699219 22.4375 22.5625 C20.70660686 22.81086215 18.97611339 23.06203077 17.24609375 23.31640625 C16.47966553 23.42412354 15.7132373 23.53184082 14.92358398 23.64282227 C12.92523759 23.92221096 12.92523759 23.92221096 11 25 C11.33 23.68 11.66 22.36 12 21 C11.46890625 20.57589844 10.9378125 20.15179688 10.390625 19.71484375 C5.72691117 15.8425996 2.40282949 12.60660214 0 7 C-0.25 3.0625 -0.25 3.0625 0 0 Z " fill="#C9C7C8" transform="translate(10,76)"/>
<path d="M0 0 C3.28435685 0.52973498 6.25944064 1.43344259 9.375 2.5625 C13.46106764 3.97243289 16.7028401 4.2742868 21 4 C20.34 3.67 19.68 3.34 19 3 C19 2.34 19 1.68 19 1 C20.12277344 1.26554687 21.24554688 1.53109375 22.40234375 1.8046875 C29.92542756 3.58114608 37.44745196 5.35217134 45 7 C45 7.33 45 7.66 45 8 C42.79112243 7.88501733 40.58289213 7.75756495 38.375 7.625 C37.14523438 7.55539063 35.91546875 7.48578125 34.6484375 7.4140625 C31.16346145 7.0185513 28.26950399 6.23738151 25 5 C25 5.66 25 6.32 25 7 C26.65 7 28.3 7 30 7 C30.33 7.99 30.66 8.98 31 10 C25.3732029 9.43417683 20.30670291 8.37480813 14.9375 6.625 C14.26912109 6.41617188 13.60074219 6.20734375 12.91210938 5.9921875 C8.4796 4.57929821 4.25056213 2.89036703 0 1 C0 0.67 0 0.34 0 0 Z " fill="#D15B2F" transform="translate(22,60)"/>
<path d="M0 0 C0.66 0.99 1.32 1.98 2 3 C0.68 3.33 -0.64 3.66 -2 4 C-2 4.66 -2 5.32 -2 6 C-0.35 6 1.3 6 3 6 C-0.48846822 8.14503684 -3.24405878 8.23354662 -7.296875 8.1953125 C-9.10478516 8.18564453 -9.10478516 8.18564453 -10.94921875 8.17578125 C-12.83060547 8.15064453 -12.83060547 8.15064453 -14.75 8.125 C-16.01972656 8.11597656 -17.28945312 8.10695313 -18.59765625 8.09765625 C-21.73196093 8.07409005 -24.86588541 8.04118832 -28 8 C-27.67 7.34 -27.34 6.68 -27 6 C-24.15844532 5.42989817 -21.36576698 4.96561373 -18.5 4.5625 C-12.05170689 3.58350299 -6.10480013 2.37408894 0 0 Z " fill="#CAC7C9" transform="translate(183,73)"/>
<path d="M0 0 C2.91517292 1.07401108 4.77810176 1.77810176 7 4 C9.9093558 4.14517744 12.719946 4.18630796 15.625 4.125 C16.42679688 4.11597656 17.22859375 4.10695313 18.0546875 4.09765625 C20.03658523 4.07406223 22.01832981 4.03819065 24 4 C24.33 4.99 24.66 5.98 25 7 C23.39743892 7.50512244 21.79288208 8.00391627 20.1875 8.5 C19.29417969 8.7784375 18.40085938 9.056875 17.48046875 9.34375 C15 10 15 10 12 10 C11.67 10.99 11.34 11.98 11 13 C11 11.68 11 10.36 11 9 C9.68 9.33 8.36 9.66 7 10 C5.82739389 8.71372289 4.6620717 7.42080217 3.5 6.125 C2.8503125 5.40570313 2.200625 4.68640625 1.53125 3.9453125 C0 2 0 2 0 0 Z " fill="#D9D8D8" transform="translate(126,115)"/>
<path d="M0 0 C1.20269531 0.21849609 1.20269531 0.21849609 2.4296875 0.44140625 C5.09098709 0.85778026 7.70637119 1.19650714 10.3828125 1.46484375 C11.15753906 1.54283203 11.93226562 1.62082031 12.73046875 1.70117188 C14.33418493 1.85945055 15.93836892 2.01305527 17.54296875 2.16210938 C25.47924958 2.97693621 25.47924958 2.97693621 28 5 C28.828125 7.1640625 28.828125 7.1640625 29.25 9.625 C29.39953125 10.44226563 29.5490625 11.25953125 29.703125 12.1015625 C29.85007812 13.04128906 29.85007812 13.04128906 30 14 C29.34 14 28.68 14 28 14 C27.34 11.69 26.68 9.38 26 7 C19.4 6.67 12.8 6.34 6 6 C5.67 4.68 5.34 3.36 5 2 C3.35 2 1.7 2 0 2 C0 1.34 0 0.68 0 0 Z " fill="#DB4B14" transform="translate(47,65)"/>
<path d="M0 0 C1.44375 0.144375 2.8875 0.28875 4.375 0.4375 C5.59316406 0.55931641 5.59316406 0.55931641 6.8359375 0.68359375 C9 1 9 1 11 2 C11 2.66 11 3.32 11 4 C8.35261084 5.4606285 7.10551666 6 4 6 C3.67 8.64 3.34 11.28 3 14 C-2.625 14.25 -2.625 14.25 -6 12 C-6.70052461 9.336937 -6.77744818 6.75964263 -7 4 C-6.34 4 -5.68 4 -5 4 C-4.54625 4.969375 -4.0925 5.93875 -3.625 6.9375 C-2.34213779 10.07079582 -2.34213779 10.07079582 0 11 C0 7.37 0 3.74 0 0 Z " fill="#DEDEDE" transform="translate(112,154)"/>
<path d="M0 0 C1.3805087 3.76668598 0.59568159 6.44789173 -0.4375 10.25 C-0.72496094 11.32765625 -1.01242188 12.4053125 -1.30859375 13.515625 C-1.53675781 14.33546875 -1.76492187 15.1553125 -2 16 C-2.99 15.34 -3.98 14.68 -5 14 C-4.34 10.7 -3.68 7.4 -3 4 C-4.258125 4.680625 -5.51625 5.36125 -6.8125 6.0625 C-8.95703125 7.22265625 -8.95703125 7.22265625 -11 8 C-11.99 7.67 -12.98 7.34 -14 7 C-9.43166501 2.17786862 -6.76869549 -0.37603864 0 0 Z " fill="#E3DFDC" transform="translate(199,49)"/>
<path d="M0 0 C3.43809493 0.44362515 6.16186368 1.50731064 9.25 3 C13.88042876 5.14789636 17.92492256 5.67777286 23 6 C22.01 6.66 21.02 7.32 20 8 C20 9.32 20 10.64 20 12 C12.52476568 12 7.52521772 7.70972124 2 3 C1.34 2.01 0.68 1.02 0 0 Z " fill="#D8D7D7" transform="translate(137,104)"/>
<path d="M0 0 C0.68359375 1.734375 0.68359375 1.734375 1 4 C-0.21484375 6.140625 -0.21484375 6.140625 -1.9375 8.25 C-2.50339844 8.95640625 -3.06929687 9.6628125 -3.65234375 10.390625 C-4.09707031 10.92171875 -4.54179688 11.4528125 -5 12 C-2.36 12.33 0.28 12.66 3 13 C2.67 13.99 2.34 14.98 2 16 C-5.42857143 16.14285714 -5.42857143 16.14285714 -9 15 C-9.12375 14.21625 -9.2475 13.4325 -9.375 12.625 C-9.79117993 9.85942178 -9.79117993 9.85942178 -12 8 C-10.35 8 -8.7 8 -7 8 C-6.67 7.01 -6.34 6.02 -6 5 C-4.12382302 3.15500602 -2.07262391 1.6316401 0 0 Z " fill="#E8E6E7" transform="translate(73,114)"/>
<path d="M0 0 C0.66 0 1.32 0 2 0 C1.125 6.75 1.125 6.75 0 9 C1.32 9 2.64 9 4 9 C2.125 13.75 2.125 13.75 1 16 C0.34 16 -0.32 16 -1 16 C-1.33 16.66 -1.66 17.32 -2 18 C-3.65 18 -5.3 18 -7 18 C-5.68 17.67 -4.36 17.34 -3 17 C-2.74969023 14.58380177 -2.74969023 14.58380177 -3 12 C-3.99 11.34 -4.98 10.68 -6 10 C-5.67 9.34 -5.34 8.68 -5 8 C-6.65 8 -8.3 8 -10 8 C-10 7.67 -10 7.34 -10 7 C-8.906875 6.95875 -7.81375 6.9175 -6.6875 6.875 C-2.75003667 6.39434602 -2.75003667 6.39434602 -1.0625 2.9375 C-0.711875 1.968125 -0.36125 0.99875 0 0 Z " fill="#CECCCD" transform="translate(81,119)"/>
<path d="M0 0 C3.77247968 0.44539628 7.54257343 0.90852485 11.3125 1.375 C12.9202832 1.56449219 12.9202832 1.56449219 14.56054688 1.7578125 C16.10258789 1.95117188 16.10258789 1.95117188 17.67578125 2.1484375 C19.0975769 2.32125244 19.0975769 2.32125244 20.5480957 2.49755859 C23 3 23 3 26 5 C21.91672643 5.0580772 17.83355917 5.09362249 13.75 5.125 C12.01169922 5.15013672 12.01169922 5.15013672 10.23828125 5.17578125 C9.12324219 5.18222656 8.00820313 5.18867187 6.859375 5.1953125 C5.83295898 5.20578613 4.80654297 5.21625977 3.74902344 5.22705078 C0.98015712 4.99836111 -0.64418792 4.4243299 -3 3 C-2.01 3 -1.02 3 0 3 C0 2.01 0 1.02 0 0 Z " fill="#C6C4C4" transform="translate(20,76)"/>
<path d="M0 0 C0.99 0 1.98 0 3 0 C3.14695312 0.56847656 3.29390625 1.13695313 3.4453125 1.72265625 C5.636258 9.26504909 8.99530717 14.45451994 15.875 18.4375 C16.90625 18.953125 17.9375 19.46875 19 20 C19 17.69 19 15.38 19 13 C20.32 13.33 21.64 13.66 23 14 C22.01 16.64 21.02 19.28 20 22 C13.00542758 20.57253624 8.56013606 17.38303693 4.25 11.6875 C2.48834914 7.89995065 1.22540611 3.98908796 0 0 Z " fill="#E7C7B9" transform="translate(69,73)"/>
<path d="M0 0 C0.45375 0.70125 0.9075 1.4025 1.375 2.125 C5.76366421 6.93163223 11.5576631 10.93871979 18.125 11.875 C19.07375 11.91625 20.0225 11.9575 21 12 C21.33 12.99 21.66 13.98 22 15 C13.698053 15.92243856 8.67221496 12.59637599 2.21875 7.62890625 C0.8125 6.375 0.8125 6.375 -1 4 C-0.8125 1.6875 -0.8125 1.6875 0 0 Z " fill="#DBDADA" transform="translate(23,99)"/>
<path d="M0 0 C5.3223297 1.63631496 10.30981576 3.83880041 15.375 6.125 C16.20644531 6.49753906 17.03789063 6.87007812 17.89453125 7.25390625 C19.93084255 8.16673546 21.96594539 9.08215598 24 10 C24 10.33 24 10.66 24 11 C22.02 11 20.04 11 18 11 C18 10.34 18 9.68 18 9 C13.545 8.01 13.545 8.01 9 7 C9 6.34 9 5.68 9 5 C8.01 5 7.02 5 6 5 C5.67 5.66 5.34 6.32 5 7 C4.67 7.66 4.34 8.32 4 9 C3.34 9 2.68 9 2 9 C-0.29013653 5.5647952 -0.17842973 4.014669 0 0 Z " fill="#D15A2B" transform="translate(16,50)"/>
<path d="M0 0 C2.31 0.33 4.62 0.66 7 1 C6.401875 1.2475 5.80375 1.495 5.1875 1.75 C2.08640982 3.52205153 0.62020952 5.60452859 -0.828125 8.86328125 C-3.28782556 14.39760752 -5.76429466 16.8973598 -11 20 C-11.66 20 -12.32 20 -13 20 C-13 18.68 -13 17.36 -13 16 C-12.01 15.67 -11.02 15.34 -10 15 C-9.505 14.484375 -9.01 13.96875 -8.5 13.4375 C-7 12 -7 12 -4 12 C-4.33 11.01 -4.66 10.02 -5 9 C-4.34 9 -3.68 9 -3 9 C-2.87625 8.443125 -2.7525 7.88625 -2.625 7.3125 C-1.94023145 4.77885636 -1.00866237 2.42078968 0 0 Z " fill="#FCEDE6" transform="translate(125,66)"/>
<path d="M0 0 C2.375 0.3125 2.375 0.3125 5 1 C7.32883474 4.4932521 7 5.92922578 7 10 C7.99 11.485 7.99 11.485 9 13 C5.55169199 12.712641 4.23781351 12.23781351 1.75 9.75 C0.00583904 7.00917563 -0.73927506 5.21560764 -1 2 C-0.67 1.34 -0.34 0.68 0 0 Z " fill="#E8E7E7" transform="translate(114,141)"/>
<path d="M0 0 C2.60578866 0.08695958 5.2081279 0.19381408 7.8125 0.3125 C8.55048828 0.33505859 9.28847656 0.35761719 10.04882812 0.38085938 C15.50214452 0.65229141 15.50214452 0.65229141 17.96875 2.375 C19.32685243 4.51504019 19.66327331 6.50822248 20 9 C20.66 9 21.32 9 22 9 C21.649375 8.4225 21.29875 7.845 20.9375 7.25 C19.85082593 4.64198224 20.06934867 3.60582371 21 1 C23 3 23 3 23.1953125 5.3828125 C23.17210938 6.28773437 23.14890625 7.19265625 23.125 8.125 C23.10695313 9.03507812 23.08890625 9.94515625 23.0703125 10.8828125 C23.04710938 11.58148438 23.02390625 12.28015625 23 13 C21.68 12.67 20.36 12.34 19 12 C18.34 9.03 17.68 6.06 17 3 C15.68 3.33 14.36 3.66 13 4 C9.765625 3.44140625 9.765625 3.44140625 6.25 2.5625 C5.07953125 2.27503906 3.9090625 1.98757812 2.703125 1.69140625 C1.81109375 1.46324219 0.9190625 1.23507813 0 1 C0 0.67 0 0.34 0 0 Z " fill="#D65321" transform="translate(55,70)"/>
<path d="M0 0 C1.98 0.66 3.96 1.32 6 2 C6 5.3 6 8.6 6 12 C1.15617759 9.5780888 0.66879675 8.00639025 -1 3 C-0.67 2.01 -0.34 1.02 0 0 Z " fill="#2D2C2C" transform="translate(107,154)"/>
<path d="M0 0 C-0.99 0.33 -1.98 0.66 -3 1 C-2.34 1.66 -1.68 2.32 -1 3 C-2.79005941 3.36220266 -4.58212057 3.71452469 -6.375 4.0625 C-7.87160156 4.35833984 -7.87160156 4.35833984 -9.3984375 4.66015625 C-12 5 -12 5 -14 4 C-16.216519 4.24786266 -18.42501152 4.57083525 -20.625 4.9375 C-22.40777344 5.22947266 -22.40777344 5.22947266 -24.2265625 5.52734375 C-25.14179688 5.68332031 -26.05703125 5.83929688 -27 6 C-26 4 -26 4 -23.93041992 3.2980957 C-21.01796587 2.62680125 -18.10581634 1.95794993 -15.1875 1.3125 C-14.17623047 1.07466797 -13.16496094 0.83683594 -12.12304688 0.59179688 C-11.14787109 0.37201172 -10.17269531 0.15222656 -9.16796875 -0.07421875 C-7.82641724 -0.37718872 -7.82641724 -0.37718872 -6.45776367 -0.6862793 C-3.96239511 -1.00480007 -2.3670347 -0.78740345 0 0 Z " fill="#CF6138" transform="translate(154,64)"/>
<path d="M0 0 C-0.99 0.33 -1.98 0.66 -3 1 C-3.33 1.99 -3.66 2.98 -4 4 C-7.96 4.66 -11.92 5.32 -16 6 C-16 5.34 -16 4.68 -16 4 C-16.66 3.67 -17.32 3.34 -18 3 C-4.97487437 -1.55879397 -4.97487437 -1.55879397 0 0 Z " fill="#E6C0B2" transform="translate(149,69)"/>
<path d="M0 0 C4.39201742 0.74902623 8.53021102 2.10911706 12.75 3.5 C18.53320137 5.36633679 23.89744162 6.67307723 30 7 C30.33 7.99 30.66 8.98 31 10 C25.3732029 9.43417683 20.30670291 8.37480813 14.9375 6.625 C14.26912109 6.41617188 13.60074219 6.20734375 12.91210938 5.9921875 C8.4796 4.57929821 4.25056213 2.89036703 0 1 C0 0.67 0 0.34 0 0 Z " fill="#D48E72" transform="translate(22,60)"/>
<path d="M0 0 C0.66 0 1.32 0 2 0 C1.53328373 5.41390868 0.75702189 9.20517932 -2 14 C-2.45375 13.38125 -2.9075 12.7625 -3.375 12.125 C-4.97108919 9.94080167 -4.97108919 9.94080167 -7 8 C-6.67 7.01 -6.34 6.02 -6 5 C-4.02 4.67 -2.04 4.34 0 4 C0 2.68 0 1.36 0 0 Z " fill="#EAEAEA" transform="translate(88,135)"/>
<path d="M0 0 C3.465 1.98 3.465 1.98 7 4 C7 4.66 7 5.32 7 6 C9.31 6.66 11.62 7.32 14 8 C13.67 8.66 13.34 9.32 13 10 C10.625 10.125 10.625 10.125 8 10 C7.34 9.34 6.68 8.68 6 8 C3.39719432 8.32041397 3.39719432 8.32041397 1 9 C0.67 6.03 0.34 3.06 0 0 Z " fill="#969596" transform="translate(111,134)"/>
<path d="M0 0 C2.91517292 1.07401108 4.77810176 1.77810176 7 4 C9.43252661 4.46162427 9.43252661 4.46162427 12.125 4.625 C13.03507813 4.69976562 13.94515625 4.77453125 14.8828125 4.8515625 C15.58148438 4.90054688 16.28015625 4.94953125 17 5 C17 5.33 17 5.66 17 6 C15.02 6 13.04 6 11 6 C11 6.99 11 7.98 11 9 C9.68 9.33 8.36 9.66 7 10 C5.82739389 8.71372289 4.6620717 7.42080217 3.5 6.125 C2.8503125 5.40570313 2.200625 4.68640625 1.53125 3.9453125 C0 2 0 2 0 0 Z " fill="#D2CFD0" transform="translate(126,115)"/>
<path d="M0 0 C0.66 0.99 1.32 1.98 2 3 C0.68 3.33 -0.64 3.66 -2 4 C-2 4.66 -2 5.32 -2 6 C-0.35 6 1.3 6 3 6 C-0.4019487 8.09350689 -3.05272412 8.17942163 -7 8 C-7 7.01 -7 6.02 -7 5 C-7.66 4.34 -8.32 3.68 -9 3 C-6.03 2.01 -3.06 1.02 0 0 Z " fill="#C7C4C5" transform="translate(183,73)"/>
<path d="M0 0 C0 0.66 0 1.32 0 2 C-2.08108685 2.67364661 -4.1649671 3.33866798 -6.25 4 C-7.41015625 4.37125 -8.5703125 4.7425 -9.765625 5.125 C-13 6 -13 6 -17 6 C-16.67 5.01 -16.34 4.02 -16 3 C-13.1640625 2.05078125 -13.1640625 2.05078125 -9.625 1.3125 C-7.88089844 0.93544922 -7.88089844 0.93544922 -6.1015625 0.55078125 C-3 0 -3 0 0 0 Z " fill="#E3D0C7" transform="translate(162,66)"/>
<path d="M0 0 C-0.1875 2.3125 -0.1875 2.3125 -1 5 C-5.03448276 8 -5.03448276 8 -8 8 C-8.33 6.02 -8.66 4.04 -9 2 C-2.25 0 -2.25 0 0 0 Z " fill="#D54C17" transform="translate(121,84)"/>
<path d="M0 0 C3.3 0 6.6 0 10 0 C10 0.66 10 1.32 10 2 C11.65 2 13.3 2 15 2 C15 2.66 15 3.32 15 4 C16.32 4.66 17.64 5.32 19 6 C12.3227105 5.39297368 6.29872004 3.22368606 0 1 C0 0.67 0 0.34 0 0 Z " fill="#FBE9DD" transform="translate(38,59)"/>
<path d="M0 0 C5.5770903 0.41828177 9.65514618 2.61414545 14 6 C14.99 7.485 14.99 7.485 16 9 C10.31497465 7.35433477 5.23318364 4.70967216 0 2 C0 1.34 0 0.68 0 0 Z " fill="#DFD5D2" transform="translate(2,49)"/>
<path d="M0 0 C-2.37205861 0.98684881 -4.74723487 1.9645755 -7.125 2.9375 C-7.79015625 3.21529297 -8.4553125 3.49308594 -9.140625 3.77929688 C-13.08853349 5.38555376 -16.73530369 6.4752165 -21 7 C-19.68 5.35 -18.36 3.7 -17 2 C-16.01 2.33 -15.02 2.66 -14 3 C-11.40329408 2.09830579 -8.97044479 0.95779067 -6.47265625 -0.1875 C-3.78628669 -1.07022491 -2.60883687 -0.96847772 0 0 Z " fill="#FEE7DD" transform="translate(172,56)"/>
<path d="M0 0 C0.99 0.33 1.98 0.66 3 1 C2.01 1.495 2.01 1.495 1 2 C1.15597656 2.61488281 1.31195313 3.22976562 1.47265625 3.86328125 C1.66730469 4.67152344 1.86195312 5.47976562 2.0625 6.3125 C2.25972656 7.11300781 2.45695312 7.91351563 2.66015625 8.73828125 C3 11 3 11 2 14 C0.68 13.34 -0.64 12.68 -2 12 C-1.85962479 10.18706911 -1.71255111 8.3746557 -1.5625 6.5625 C-1.48128906 5.55316406 -1.40007812 4.54382813 -1.31640625 3.50390625 C-1 1 -1 1 0 0 Z " fill="#CBC9CA" transform="translate(104,156)"/>
<path d="M0 0 C0.66 0 1.32 0 2 0 C2.26554688 0.74765625 2.53109375 1.4953125 2.8046875 2.265625 C3.15789063 3.25046875 3.51109375 4.2353125 3.875 5.25 C4.22304687 6.22453125 4.57109375 7.1990625 4.9296875 8.203125 C5.83274645 10.56294327 6.82078418 12.76905116 8 15 C7.01 15 6.02 15 5 15 C4.15415002 13.44424022 3.32381601 11.8800388 2.5 10.3125 C2.0359375 9.44238281 1.571875 8.57226562 1.09375 7.67578125 C-0.04818792 4.88211171 -0.21504208 2.98370887 0 0 Z " fill="#D0CFCF" transform="translate(2,55)"/>
<path d="M0 0 C0.33 0.66 0.66 1.32 1 2 C1.66 2.33 2.32 2.66 3 3 C3.72904086 4.64034193 4.38655243 6.31301918 5 8 C5.37125 8.928125 5.7425 9.85625 6.125 10.8125 C6.41375 11.534375 6.7025 12.25625 7 13 C4.06247746 12.69611836 3.15919107 12.19330344 1.25 9.875 C-0.2577334 6.40721317 -0.22019353 3.74329002 0 0 Z " fill="#D2D1D2" transform="translate(10,76)"/>
<path d="M0 0 C0.33 0 0.66 0 1 0 C1.19294408 4.82360189 0.75747614 8.49646738 -1 13 C-1.99 12.34 -2.98 11.68 -4 11 C-3.34 8.03 -2.68 5.06 -2 2 C-1.34 2 -0.68 2 0 2 C0 1.34 0 0.68 0 0 Z " fill="#BDBBBB" transform="translate(198,52)"/>
<path d="M0 0 C1.38226016 2.76452033 1.09525387 5.0461363 1.0625 8.125 C1.05347656 9.22070312 1.04445313 10.31640625 1.03515625 11.4453125 C1.02355469 12.28835937 1.01195313 13.13140625 1 14 C0.01 13.67 -0.98 13.34 -2 13 C-2 10.69 -2 8.38 -2 6 C-3.98 5.34 -5.96 4.68 -8 4 C-7.67 3.34 -7.34 2.68 -7 2 C-4.6859378 1.26924352 -2.35171131 0.59861742 0 0 Z " fill="#E3E2E2" transform="translate(88,154)"/>
<path d="M0 0 C0.66 0.33 1.32 0.66 2 1 C1.28869023 6.45337488 -0.23293052 8.23293052 -4 12 C-4 11.34 -4 10.68 -4 10 C-4.66 9.67 -5.32 9.34 -6 9 C-5.34 9 -4.68 9 -4 9 C-3.896875 8.443125 -3.79375 7.88625 -3.6875 7.3125 C-2.86866423 4.55823422 -1.54146219 2.41272343 0 0 Z " fill="#CBCBCB" transform="translate(95,156)"/>
<path d="M0 0 C-0.125 2.75 -0.125 2.75 -1 6 C-4.15370998 8.60523868 -5.86648155 10 -10 10 C-10 9.34 -10 8.68 -10 8 C-7.69 7.34 -5.38 6.68 -3 6 C-3 5.01 -3 4.02 -3 3 C-3.99 2.67 -4.98 2.34 -6 2 C-2.25 0 -2.25 0 0 0 Z " fill="#CE5B2F" transform="translate(186,49)"/>
<path d="M0 0 C0.66 0.33 1.32 0.66 2 1 C2 2.32 2 3.64 2 5 C-2.22222222 9 -2.22222222 9 -5 9 C-4.5206753 4.68607774 -3.2542015 2.83430453 0 0 Z " fill="#E7E7E7" transform="translate(176,100)"/>
<path d="M0 0 C0.66 0 1.32 0 2 0 C3.625 2.75 3.625 2.75 5 6 C4.1875 8.375 4.1875 8.375 3 10 C1.35 10 -0.3 10 -2 10 C-0.68 9.67 0.64 9.34 2 9 C1.67 8.443125 1.34 7.88625 1 7.3125 C-0.1309601 4.69715478 -0.15662974 2.8193354 0 0 Z " fill="#D1CFD0" transform="translate(118,118)"/>
<path d="M0 0 C0.99 0 1.98 0 3 0 C3 0.99 3 1.98 3 3 C0 5 0 5 -4 5 C-4 5.66 -4 6.32 -4 7 C-5.32 7 -6.64 7 -8 7 C-8 6.34 -8 5.68 -8 5 C-2.25 2 -2.25 2 0 2 C0 1.34 0 0.68 0 0 Z " fill="#E44206" transform="translate(180,52)"/>
<path d="M0 0 C3.63 0.33 7.26 0.66 11 1 C11.33 2.65 11.66 4.3 12 6 C10.3725363 5.38144369 8.74809644 4.75492695 7.125 4.125 C6.22007813 3.77695312 5.31515625 3.42890625 4.3828125 3.0703125 C2 2 2 2 0 0 Z " fill="#FAE7DD" transform="translate(20,51)"/>
<path d="M0 0 C0.66 0 1.32 0 2 0 C5.22265625 5.17578125 5.22265625 5.17578125 6 7 C5.67 7.99 5.34 8.98 5 10 C3.0625 9.5 3.0625 9.5 1 8 C0.31209578 5.30341548 0.18053536 2.7982981 0 0 Z " fill="#E5E4E5" transform="translate(105,158)"/>
<path d="M0 0 C1.65 0.33 3.3 0.66 5 1 C5.33 1.99 5.66 2.98 6 4 C5.67 4.66 5.34 5.32 5 6 C4.34 6 3.68 6 3 6 C2.67 6.66 2.34 7.32 2 8 C0.35 8 -1.3 8 -3 8 C-1.68 7.67 -0.36 7.34 1 7 C1.15149298 3.37114676 1.15149298 3.37114676 0 0 Z " fill="#DFDFDF" transform="translate(77,129)"/>
<path d="M0 0 C0.99 0 1.98 0 3 0 C3.18175781 0.60328125 3.36351563 1.2065625 3.55078125 1.828125 C5.41987906 7.85585198 5.41987906 7.85585198 9 13 C8.01 13.33 7.02 13.66 6 14 C3.02931839 9.6147081 1.54058233 5.01508715 0 0 Z " fill="#E3B4A0" transform="translate(69,73)"/>
<path d="M0 0 C2.31 0.66 4.62 1.32 7 2 C6.01 2.495 6.01 2.495 5 3 C5 4.32 5 5.64 5 7 C3.35 6.67 1.7 6.34 0 6 C-0.38218767 4.34385343 -0.71395102 2.67542976 -1 1 C-0.67 0.67 -0.34 0.34 0 0 Z " fill="#3A3839" transform="translate(83,132)"/>
<path d="M0 0 C0.99 0 1.98 0 3 0 C3 0.66 3 1.32 3 2 C2.34 2 1.68 2 1 2 C0.87625 2.7425 0.7525 3.485 0.625 4.25 C0.04513299 6.80141485 -0.73708739 8.7267573 -2 11 C-2.33 11 -2.66 11 -3 11 C-3.32136655 6.39374606 -2.91033076 3.66486096 0 0 Z " fill="#EDD8CE" transform="translate(130,73)"/>
<path d="M0 0 C0 0.66 0 1.32 0 2 C-4.29 2.99 -8.58 3.98 -13 5 C-13 4.34 -13 3.68 -13 3 C-8.37802694 0.78145293 -5.23175837 -0.38281159 0 0 Z " fill="#DC4708" transform="translate(171,59)"/>
<path d="M0 0 C1.52499616 1.23297562 3.04642631 2.47306084 4.50390625 3.78515625 C6.26302564 5.21357957 7.75369126 5.74081053 10 6 C9.67 6.66 9.34 7.32 9 8 C7.948125 7.5359375 7.948125 7.5359375 6.875 7.0625 C3.91063343 5.96697322 1.12301892 5.43577008 -2 5 C-2.33 3.68 -2.66 2.36 -3 1 C-2.01 0.67 -1.02 0.34 0 0 Z " fill="#DE4E18" transform="translate(22,55)"/>
<path d="M0 0 C4.455 1.98 4.455 1.98 9 4 C6.4345406 6.5654594 4.52313332 6.54046087 1 7 C0.67 4.69 0.34 2.38 0 0 Z " fill="#323131" transform="translate(3,51)"/>
<path d="M0 0 C0.79921875 0.11085938 1.5984375 0.22171875 2.421875 0.3359375 C3.32679687 0.47902344 3.32679687 0.47902344 4.25 0.625 C4.25 0.955 4.25 1.285 4.25 1.625 C2.64950296 2.01536513 1.04437629 2.38678619 -0.5625 2.75 C-1.45582031 2.95882812 -2.34914063 3.16765625 -3.26953125 3.3828125 C-5.75 3.625 -5.75 3.625 -8.75 1.625 C-5.5750906 -0.2828584 -3.64414789 -0.5359041 0 0 Z " fill="#C9C8C8" transform="translate(61.75,120.375)"/>
<path d="M0 0 C3.79588866 0.54226981 5.47211993 2.20127563 8 5 C6.02 5.33 4.04 5.66 2 6 C0 2.25 0 2.25 0 0 Z " fill="#2A2627" transform="translate(74,88)"/>
<path d="M0 0 C1.65 0 3.3 0 5 0 C5.33 0.99 5.66 1.98 6 3 C3.36 3.66 0.72 4.32 -2 5 C-1.34 3.35 -0.68 1.7 0 0 Z " fill="#CBCACA" transform="translate(145,119)"/>
<path d="M0 0 C0.66 0 1.32 0 2 0 C2.33 2.97 2.66 5.94 3 9 C2.01 9.33 1.02 9.66 0 10 C0 6.7 0 3.4 0 0 Z " fill="#393939" transform="translate(88,156)"/>
<path d="M0 0 C1.79133978 -0.05391993 3.58313899 -0.09275571 5.375 -0.125 C6.37273437 -0.14820312 7.37046875 -0.17140625 8.3984375 -0.1953125 C11 0 11 0 13 2 C12.01 2.33 11.02 2.66 10 3 C10.66 3.66 11.32 4.32 12 5 C10.35 4.67 8.7 4.34 7 4 C7.33 3.01 7.66 2.02 8 1 C5.36 1 2.72 1 0 1 C0 0.67 0 0.34 0 0 Z " fill="#D2D1D2" transform="translate(99,69)"/>
<path d="M0 0 C5.28 0.33 10.56 0.66 16 1 C16 1.66 16 2.32 16 3 C12.19068824 4.26977059 10.18381007 3.52074507 6.3125 2.5625 C4.54326172 2.13130859 4.54326172 2.13130859 2.73828125 1.69140625 C1.83464844 1.46324219 0.93101563 1.23507813 0 1 C0 0.67 0 0.34 0 0 Z " fill="#CA6E4D" transform="translate(55,70)"/>
<path d="M0 0 C0.66 0 1.32 0 2 0 C1.4140625 6.15234375 1.4140625 6.15234375 1 8 C0.01 8.495 0.01 8.495 -1 9 C-1 8.01 -1 7.02 -1 6 C-1.99 5.67 -2.98 5.34 -4 5 C-2.68 4.67 -1.36 4.34 0 4 C0 2.68 0 1.36 0 0 Z " fill="#DCDBDB" transform="translate(88,135)"/>
<path d="M0 0 C1.32 0.33 2.64 0.66 4 1 C3.01 3.64 2.02 6.28 1 9 C0.01 8.67 -0.98 8.34 -2 8 C-1.34 7.67 -0.68 7.34 0 7 C0 4.69 0 2.38 0 0 Z " fill="#EFD5CB" transform="translate(88,86)"/>
<path d="M0 0 C0.99 0 1.98 0 3 0 C3 0.66 3 1.32 3 2 C3.99 2.33 4.98 2.66 6 3 C6 3.33 6 3.66 6 4 C-0.0546875 4.1953125 -0.0546875 4.1953125 -2 4 C-2.66 3.34 -3.32 2.68 -4 2 C-2.68 2 -1.36 2 0 2 C0 1.34 0 0.68 0 0 Z " fill="#DC4911" transform="translate(38,61)"/>
<path d="M0 0 C2.31 0 4.62 0 7 0 C7.33 0.99 7.66 1.98 8 3 C5.36 3 2.72 3 0 3 C0 2.01 0 1.02 0 0 Z " fill="#E0E0E0" transform="translate(37,111)"/>
<path d="M0 0 C3.82097239 0.53069061 6.06171403 1.49701566 9 4 C7.35 4.33 5.7 4.66 4 5 C2.68 3.35 1.36 1.7 0 0 Z " fill="#CBC7C8" transform="translate(137,104)"/>
<path d="M0 0 C0 0.33 0 0.66 0 1 C-1.98 1 -3.96 1 -6 1 C-6 1.99 -6 2.98 -6 4 C-7.32 4.33 -8.64 4.66 -10 5 C-10.66 4.01 -11.32 3.02 -12 2 C-7.8794254 0.00214565 -4.54805635 -0.17835515 0 0 Z " fill="#C2C0C1" transform="translate(143,120)"/>
<path d="M0 0 C2.31 0 4.62 0 7 0 C6.34 0.66 5.68 1.32 5 2 C4.30251417 3.31747324 3.63040043 4.64914193 3 6 C0 2.25 0 2.25 0 0 Z " fill="#424141" transform="translate(24,99)"/>
<path d="M0 0 C-2.26969744 2.26969744 -3.97395487 2.99131829 -7 4 C-8.32 4 -9.64 4 -11 4 C-11 3.34 -11 2.68 -11 2 C-7.17679443 0.57741188 -4.08718695 -0.24042276 0 0 Z " fill="#F6DAD1" transform="translate(174,62)"/>
<path d="M0 0 C2.0625 0.4375 2.0625 0.4375 4 1 C4.33 2.32 4.66 3.64 5 5 C4.01 5.33 3.02 5.66 2 6 C1.01 4.35 0.02 2.7 -1 1 C-0.67 0.67 -0.34 0.34 0 0 Z " fill="#E1E0E1" transform="translate(96,169)"/>
<path d="M0 0 C1.98 0.99 3.96 1.98 6 3 C6 3.99 6 4.98 6 6 C3.97954558 5.39816251 1.97888961 4.72693904 0 4 C-0.33 3.34 -0.66 2.68 -1 2 C-0.67 1.34 -0.34 0.68 0 0 Z " fill="#D4D2D3" transform="translate(31,107)"/>
<path d="M0 0 C-1.39332574 3.36720387 -2.9789286 4.9859524 -6 7 C-6 6.34 -6 5.68 -6 5 C-6.66 4.67 -7.32 4.34 -8 4 C-2.25 0 -2.25 0 0 0 Z " fill="#C4C3C3" transform="translate(64,103)"/>
<path d="M0 0 C2.475 0.99 2.475 0.99 5 2 C5 3.65 5 5.3 5 7 C0.125 4.375 0.125 4.375 -1 1 C-0.67 0.67 -0.34 0.34 0 0 Z " fill="#E44609" transform="translate(82,85)"/>
<path d="M0 0 C0.268125 0.639375 0.53625 1.27875 0.8125 1.9375 C1.88667752 4.33131686 1.88667752 4.33131686 5 5 C4.67 6.32 4.34 7.64 4 9 C4 8.01 4 7.02 4 6 C2.35 5.67 0.7 5.34 -1 5 C-1 4.34 -1 3.68 -1 3 C-1.66 2.67 -2.32 2.34 -3 2 C-2.01 1.34 -1.02 0.68 0 0 Z " fill="#DEDDDE" transform="translate(187,71)"/>
<path d="M0 0 C1.32 1.32 2.64 2.64 4 4 C3.67 4.99 3.34 5.98 3 7 C2.01 6.67 1.02 6.34 0 6 C0 4.02 0 2.04 0 0 Z " fill="#E3E1E2" transform="translate(111,134)"/>
<path d="M0 0 C-2 3 -2 3 -4.125 3.6875 C-4.74375 3.790625 -5.3625 3.89375 -6 4 C-6 2.68 -6 1.36 -6 0 C-2.25 -1.125 -2.25 -1.125 0 0 Z " fill="#E8E8E8" transform="translate(157,118)"/>
<path d="M0 0 C1.98 0 3.96 0 6 0 C5.01 2.31 4.02 4.62 3 7 C2.34 6.01 1.68 5.02 1 4 C1.33 3.01 1.66 2.02 2 1 C1.34 0.67 0.68 0.34 0 0 Z " fill="#2D2C2D" transform="translate(182,80)"/>
<path d="M0 0 C2.31 0 4.62 0 7 0 C7.33 0.99 7.66 1.98 8 3 C5.36 2.67 2.72 2.34 0 2 C0 1.34 0 0.68 0 0 Z " fill="#D17455" transform="translate(45,67)"/>
<path d="M0 0 C5.75 0.75 5.75 0.75 8 3 C7.34 3.66 6.68 4.32 6 5 C4.02 4.01 2.04 3.02 0 2 C0 1.34 0 0.68 0 0 Z " fill="#CFCFCF" transform="translate(2,49)"/>
<path d="M0 0 C-3.6441774 2.4294516 -5.71241272 2.16179575 -10 2 C-9.67 1.34 -9.34 0.68 -9 0 C-5.65506316 -0.99444068 -3.31044803 -1.10348268 0 0 Z " fill="#D74813" transform="translate(144,68)"/>
<path d="M0 0 C0.33 0.66 0.66 1.32 1 2 C0.0625 4.125 0.0625 4.125 -1 6 C-1.99 5.67 -2.98 5.34 -4 5 C-4 4.01 -4 3.02 -4 2 C-2.68 1.34 -1.36 0.68 0 0 Z " fill="#363231" transform="translate(196,52)"/>
<path d="M0 0 C0.99 0.33 1.98 0.66 3 1 C2.01 1.495 2.01 1.495 1 2 C1 3.98 1 5.96 1 8 C0.34 7.67 -0.32 7.34 -1 7 C-1.04254356 5.00045254 -1.04080783 2.99958364 -1 1 C-0.67 0.67 -0.34 0.34 0 0 Z " fill="#BCBABB" transform="translate(104,156)"/>
<path d="M0 0 C0.33 1.98 0.66 3.96 1 6 C0.67 5.34 0.34 4.68 0 4 C-1.32 4 -2.64 4 -4 4 C-4.33 3.01 -4.66 2.02 -5 1 C-2 0 -2 0 0 0 Z " fill="#312F30" transform="translate(118,134)"/>
<path d="M0 0 C0 0.99 0 1.98 0 3 C-1.98 3.33 -3.96 3.66 -6 4 C-5.67 3.01 -5.34 2.02 -5 1 C-2 0 -2 0 0 0 Z " fill="#E8E8E8" transform="translate(162,110)"/>
<path d="M0 0 C1.32 0.33 2.64 0.66 4 1 C3.67 1.99 3.34 2.98 3 4 C1.35 4 -0.3 4 -2 4 C-1.34 2.68 -0.68 1.36 0 0 Z " fill="#D5D1D0" transform="translate(173,77)"/>
<path d="M0 0 C0.66 0 1.32 0 2 0 C2 1.32 2 2.64 2 4 C0.02 4.33 -1.96 4.66 -4 5 C-2.71937515 3.2925002 -1.38232443 1.62626404 0 0 Z " fill="#FBEFE3" transform="translate(155,58)"/>
</svg>
